<svg width="1024" height="1024" viewBox="0 0 1024 1024" fill="none" xmlns="http://www.w3.org/2000/svg">
<path d="M572.089 473.133C558.243 454.622 540.577 439.305 520.29 428.221C500.003 417.138 477.57 410.547 454.512 408.895C431.454 407.244 408.311 410.571 386.652 418.65C364.993 426.73 345.325 439.373 328.981 455.722L280.618 504.086L232.254 552.449C202.888 582.854 186.639 623.577 187.006 665.846C187.373 708.115 204.328 748.549 234.218 778.439C264.108 808.33 304.542 825.284 346.811 825.651C389.081 826.019 429.803 809.769 460.208 780.403L515.343 725.269" stroke="#FF6584" stroke-width="88" stroke-linecap="round" stroke-linejoin="round"/>
<path d="M451.911 550.524C465.757 569.036 483.423 584.353 503.71 595.436C523.997 606.52 546.43 613.111 569.488 614.762C592.546 616.413 615.689 613.086 637.348 605.007C659.007 596.928 678.675 584.284 695.019 567.935L791.746 471.208C821.112 440.803 837.361 400.081 836.994 357.811C836.627 315.542 819.672 275.108 789.782 245.218C759.892 215.328 719.458 198.373 677.189 198.006C634.919 197.639 594.197 213.888 563.792 243.254L508.335 298.389" stroke="#4D41DF" stroke-width="88" stroke-linecap="round" stroke-linejoin="round"/>
</svg>
